# xmcd
#
# Track frame offsets:
#	150
#	14983
#	29012
#	40899
#	52827
#	69621
#	82869
#	103243
#	116949
#	127210
#	138741
#	150094
#
# Disc length: 2133 seconds
# Revision: 0
# Processed by: cddbd v1.5.2PL0 Copyright (c) Steve Scherf et al.
# Submitted via: dBpowerAMP V12.0
#
DISCID=ac08530c
DTITLE=The Del McCoury Band - Del and Woody
DYEAR=2016
DGENRE=Country
TTITLE0=The New York Trains
TTITLE1=Cheap Mike
TTITLE2=Ain't a Gonna Do
TTITLE3=Left in This World Alone
TTITLE4=Californy Gold
TTITLE5=Because You Took Me in Out of the Rain
TTITLE6=The Government Road
TTITLE7=Dirty Overhalls
TTITLE8=Family Reunion
TTITLE9=Wimmen's Hats
TTITLE10=Little Fellow
TTITLE11=Hoecake Fritters
EXTD=
EXTT0=
EXTT1=
EXTT2=
EXTT3=
EXTT4=
EXTT5=
EXTT6=
EXTT7=
EXTT8=
EXTT9=
EXTT10=
EXTT11=
PLAYORDER=
